# xmcd
#
# Track frame offsets:
#	150
#	14875
#	28301
#	42428
#	57333
#	71670
#	88050
#	104479
#	119796
#	137066
#	149342
#	164322
#	182472
#	197457
#	213516
#	227861
#	248154
#	259121
#	268537
#	283400
#	295346
#	314617
#	330559
#
# Disc length: 4545 seconds
#
# Revision: 1
# Processed by: cddbd v1.5.2PL0 Copyright (c) Steve Scherf et al.
# Submitted via: audiograbber 1.83.01
#
DISCID=7711bf17
DTITLE=Glenn Erickson - Diamondback Records Compilation 020
DYEAR=2016
DGENRE=
TTITLE0=The Face Of Love -Allen Karl
TTITLE1=Is Anyboddy Going To San Antone -B. Jeff Stone
TTITLE2=Walking On The Blue Side -Donna Donna Cunningham
TTITLE3=She Stayed -Dennis Blair
TTITLE4=When The Flame Went Out -Phillip Clarkson and Sarah Patrick
TTITLE5=It Aint Easy Being Easy -Julie Richardson
TTITLE6=I Remember When -Mitch Show
TTITLE7=Afraid  -David Star
TTITLE8=I Never Knew Lonely -Allen Karl and Donna Cunningham
TTITLE9=Tommy -Rick Vaznis 
TTITLE10=So Over You -Stephanie Calvert 
TTITLE11=Bad Memories -Ray William Roldan
TTITLE12=Saturday Night Is Girls Night Out -Donna Cubningham and Rose Anglica
TTITLE13=That Endless Black Ribbon -Peter Trenholm
TTITLE14=You Comb Her Hair -Willie Carver
TTITLE15=Not my Will By They Will Be Done -Kelly Rose Longard
TTITLE16=My PickUp Truck -Glen Erickson
TTITLE17=Like I´ve Never Be Gone -Ray Tombs
TTITLE18=My Youth Back -Fracer Newcombe
TTITLE19=Yes Mam, He Found Me In A Honky Tonk -Tammy Kendrick
TTITLE20=Hometown Battelfield -J. P. Cormier
TTITLE21=Can´t Put You Down -James Steward Keene
TTITLE22=It Couldn´t Happen Without Tears -Glenn Ercikson
EXTD=
EXTT0=
EXTT1=
EXTT2=
EXTT3=
EXTT4=
EXTT5=
EXTT6=
EXTT7=
EXTT8=
EXTT9=
EXTT10=
EXTT11=
EXTT12=
EXTT13=
EXTT14=
EXTT15=
EXTT16=
EXTT17=
EXTT18=
EXTT19=
EXTT20=
EXTT21=
EXTT22=
PLAYORDER=
